<svg id="facebook_1_" data-name="facebook (1)" xmlns="http://www.w3.org/2000/svg" width="35" height="35" viewBox="0 0 35 35">
  <g id="Group_14160" data-name="Group 14160">
    <g id="Group_14159" data-name="Group 14159">
      <path id="Path_60536" data-name="Path 60536" d="M180.514,89.572h-.12a1.13,1.13,0,0,0,.723-1.053V84.6a1.128,1.128,0,0,0-1.125-1.129l-3.236-.014a5.194,5.194,0,0,0-5.537,5.522v.594a1.13,1.13,0,0,0-1.092,1.129v4.366A1.129,1.129,0,0,0,171.22,96.2v9.785a1.129,1.129,0,0,0,1.129,1.129h4.366a1.129,1.129,0,0,0,1.129-1.129V96.2h2.287a1.126,1.126,0,0,0,1.123-1.03l.384-4.366a1.13,1.13,0,0,0-1.125-1.228ZM179.1,93.938h-2.382a1.129,1.129,0,0,0-1.129,1.129v9.785h-2.108V95.067a1.129,1.129,0,0,0-1.092-1.129V91.83a1.13,1.13,0,0,0,1.092-1.129V88.979a2.963,2.963,0,0,1,3.274-3.264l2.107.009v1.663l-1.132-.007c-2.038,0-2.141,1.514-2.141,1.818v1.5a1.129,1.129,0,0,0,1.129,1.129h2.567Z" transform="translate(-158.123 -77.567)"/>
      <path id="Path_60537" data-name="Path 60537" d="M25.883,0H9.112A8.816,8.816,0,0,0,0,9.116v16.77A8.815,8.815,0,0,0,9.112,35H25.883A8.817,8.817,0,0,0,35,25.885V9.116A8.818,8.818,0,0,0,25.883,0Zm6.859,25.885a6.562,6.562,0,0,1-6.859,6.857H9.112a6.559,6.559,0,0,1-6.854-6.857V9.116A6.56,6.56,0,0,1,9.112,2.258H25.883a6.562,6.562,0,0,1,6.859,6.858Z"/>
    </g>
  </g>
</svg>
