<svg id="instagram_1_" data-name="instagram (1)" xmlns="http://www.w3.org/2000/svg" width="35" height="35" viewBox="0 0 35 35">
  <g id="Group_14162" data-name="Group 14162" transform="translate(13.762 13.561)">
    <g id="Group_14161" data-name="Group 14161">
      <path id="Path_60538" data-name="Path 60538" d="M201.79,193.731a3.73,3.73,0,0,0-6.061,0,3.738,3.738,0,1,0,6.061,0Zm-3.03,3.658a1.479,1.479,0,0,1-1.478-1.477,1.479,1.479,0,0,1,2.958,0A1.48,1.48,0,0,1,198.76,197.389Z" transform="translate(-195.024 -192.176)"/>
    </g>
  </g>
  <g id="Group_14164" data-name="Group 14164" transform="translate(5.457 15.279)">
    <g id="Group_14163" data-name="Group 14163">
      <path id="Path_60539" data-name="Path 60539" d="M100.288,216.528h-5.6a1.129,1.129,0,0,0-1.1,1.4,3.222,3.222,0,0,0,.383,1.022,1.564,1.564,0,0,1,.006.18,4.351,4.351,0,0,1-4.609,4.27c-2.714,0-4.61-1.686-4.61-4.1a1.284,1.284,0,0,1,.011-.23.894.894,0,0,1,.044-.113,6.378,6.378,0,0,0,.334-1.03,1.129,1.129,0,0,0-1.1-1.4h-5.6a1.129,1.129,0,0,0,0,2.258h4.074a3.867,3.867,0,0,0-.029.515c0,3.624,2.952,6.358,6.868,6.358a6.56,6.56,0,0,0,6.869-6.528c0-.13,0-.243-.012-.344h4.062a1.129,1.129,0,1,0,0-2.258Z" transform="translate(-77.328 -216.528)"/>
    </g>
  </g>
  <g id="Group_14166" data-name="Group 14166" transform="translate(20.877 5.452)">
    <g id="Group_14165" data-name="Group 14165">
      <path id="Path_60540" data-name="Path 60540" d="M302.972,82.093h0l-4.846.01-.01-3.712a1.129,1.129,0,0,0-1.129-1.127h0a1.129,1.129,0,0,0-1.127,1.131l.012,4.841A1.129,1.129,0,0,0,297,84.363h0l5.974-.012a1.129,1.129,0,0,0,0-2.258Z" transform="translate(-295.856 -77.264)"/>
    </g>
  </g>
  <g id="Group_14169" data-name="Group 14169">
    <g id="Group_14168" data-name="Group 14168">
      <g id="Group_14167" data-name="Group 14167">
        <path id="Path_60541" data-name="Path 60541" d="M95.808,77.328H82.93a5.547,5.547,0,0,0-5.6,5.182V95.387c0,2.713,2.585,6.028,5.6,6.028H95.808c3.019,0,5.607-3.315,5.607-6.028V82.51A5.549,5.549,0,0,0,95.808,77.328Zm3.349,18.059c0,1.726-1.815,3.77-3.349,3.77H82.93c-1.531,0-3.344-2.044-3.344-3.77V82.51a3.325,3.325,0,0,1,3.344-2.924H95.808a3.328,3.328,0,0,1,3.349,2.924Z" transform="translate(-71.871 -71.871)"/>
        <path id="Path_60542" data-name="Path 60542" d="M25.9,0H9.1C3.743,0,0,3.57,0,8.682V25.471A9.223,9.223,0,0,0,9.1,35H25.9A9.224,9.224,0,0,0,35,25.471V8.682C35,3.571,31.256,0,25.9,0Zm6.846,25.471c0,4.145-2.942,7.271-6.846,7.271H9.1c-3.9,0-6.844-3.125-6.844-7.271V8.682c0-3.9,2.686-6.424,6.844-6.424H25.9c4.159,0,6.846,2.521,6.846,6.424Z"/>
      </g>
    </g>
  </g>
</svg>
