<svg xmlns="http://www.w3.org/2000/svg" width="13.394" height="16.186" viewBox="0 0 13.394 16.186">
  <path id="Path_19" data-name="Path 19" d="M644.529,511.7l.154.176.154.187.132.2.121.22.1.242.1.242.066.264.066.275.044.286.022.308.022.308-.011.319-.022.33-.022.352-.066.352-.055.352-.088.363-.088.374-.11.363-.132.385-.143.385-.154.385-.165.374-.176.385-.2.374-.2.385-.231.374-.22.374-.242.363-.253.363-.253.352-.275.352-.264.341-.286.33-.3.308-.286.308-.3.3-.319.286-.3.264-.319.264-.308.242-.319.22-.319.22-.319.187-.308.187-.319.154-.308.143-.308.132-.308.11-.3.088-.286.066-.3.055-.264.044h-.549l-.242-.022-.242-.044-.242-.066-.22-.077-.22-.1-.154-.1a.742.742,0,0,1-.89.022l-1-.813a.692.692,0,0,1-.077-.923l2.78-3.242a.748.748,0,0,1,.956-.077l1,.813a.657.657,0,0,1,.22.505l.11-.011.121-.033.154-.044.132-.055.143-.055.154-.066.154-.077.143-.088.154-.088.154-.1.154-.121.154-.11.143-.121.165-.132.143-.143.154-.143.143-.143.154-.154.132-.165.154-.165.132-.176.132-.176.132-.176.121-.176.11-.187.121-.187.11-.176.11-.2.1-.187.088-.187.088-.187.077-.187.077-.187.066-.2.066-.176.044-.187.055-.165.033-.187.022-.165.022-.165.022-.165.011-.165v-.143l-.011-.143-.011-.066a.649.649,0,0,1-.516-.011l-1.176-.582a.693.693,0,0,1-.275-.89l2.143-3.923a.747.747,0,0,1,.923-.275l1.165.582a.674.674,0,0,1,.3.846Z" transform="translate(-632.113 -510.111)" fill="#222" fill-rule="evenodd"/>
</svg>
