<svg id="Group_14199" data-name="Group 14199" xmlns="http://www.w3.org/2000/svg" width="36.348" height="36.348" viewBox="0 0 36.348 36.348">
  <g id="silence">
    <g id="Group_14193" data-name="Group 14193" transform="translate(0 0)">
      <path id="Path_60546" data-name="Path 60546" d="M1.065,18.174a17.11,17.11,0,0,1,28.1-13.115.532.532,0,0,0,.684-.816,18.175,18.175,0,0,0-25.607,25.6.532.532,0,0,0,.816-.684,17.125,17.125,0,0,1-3.99-10.984Z" transform="translate(0 0)"/>
      <path id="Path_60547" data-name="Path 60547" d="M108.222,82.557a.532.532,0,1,0-.792.712,17.109,17.109,0,0,1-24.162,24.162.532.532,0,1,0-.712.792,18.174,18.174,0,0,0,25.666-25.666Z" transform="translate(-76.531 -76.532)"/>
    </g>
  </g>
  <g id="silence_1_" data-name="silence (1)" transform="translate(11.592 9.485)">
    <g id="Group_14195" data-name="Group 14195" transform="translate(0 4.355)">
      <g id="Group_14194" data-name="Group 14194">
        <path id="Path_60548" data-name="Path 60548" d="M1.254,142.59A1.255,1.255,0,0,0,0,143.844v6.162a1.255,1.255,0,0,0,1.254,1.254H3.326V142.59Zm1.237,7.833H1.254a.418.418,0,0,1-.418-.418v-6.162a.418.418,0,0,1,.418-.418H2.49v7Z" transform="translate(0 -142.59)"/>
      </g>
    </g>
    <g id="Group_14197" data-name="Group 14197" transform="translate(4.408 0)">
      <g id="Group_14196" data-name="Group 14196">
        <path id="Path_60549" data-name="Path 60549" d="M111.47,40.1a1.2,1.2,0,0,0-1.253.093l-6.347,4.326v8.275l6.336,4.319a1.212,1.212,0,0,0,1.926-.98V41.18A1.206,1.206,0,0,0,111.47,40.1ZM111.3,56.133a.368.368,0,0,1-.206.335.378.378,0,0,1-.4-.039l-5.982-4.077V44.961l5.993-4.084a.376.376,0,0,1,.6.3Z" transform="translate(-103.87 -39.967)"/>
      </g>
    </g>
  </g>
  <rect id="Rectangle_25" data-name="Rectangle 25" width="0.877" height="21.772" transform="translate(24.555 7.188) rotate(30)"/>
</svg>
